<?xml version="1.0" standalone="no"?>
<!DOCTYPE svg PUBLIC "-//W3C//DTD SVG 20010904//EN"
 "http://www.w3.org/TR/2001/REC-SVG-20010904/DTD/svg10.dtd">
<svg version="1.0" xmlns="http://www.w3.org/2000/svg"
 width="230.000000pt" height="214.000000pt" viewBox="0 0 230.000000 214.000000"
 preserveAspectRatio="xMidYMid meet">

<g transform="translate(0.000000,214.000000) scale(0.100000,-0.100000)"
fill="#000000" stroke="none">
<path d="M637 1900 c-15 -12 -38 -43 -53 -70 -15 -28 -31 -50 -36 -50 -4 0 -8
15 -8 34 0 19 -8 44 -19 57 l-18 23 -12 -36 c-12 -36 -7 -82 12 -106 7 -9 7
-16 -1 -24 -18 -18 -14 -32 4 -17 9 7 33 12 54 10 22 -1 53 5 71 15 31 16 32
17 14 30 -10 8 -29 14 -43 14 -33 0 -19 16 39 45 50 26 86 66 74 85 -10 17
-50 11 -78 -10z"/>
<path d="M1604 1909 c-11 -19 30 -63 84 -88 56 -27 66 -41 29 -41 -13 0 -31
-6 -41 -13 -17 -12 -16 -14 9 -31 20 -13 41 -17 75 -14 38 4 49 1 59 -14 10
-16 8 -18 -22 -18 -18 0 -42 -6 -52 -14 -18 -13 -17 -14 10 -32 16 -11 47 -19
72 -19 32 0 49 -5 59 -19 15 -21 19 -10 5 13 -5 8 -3 24 6 42 15 30 20 100 8
119 -11 18 -33 -7 -45 -52 l-11 -39 -21 26 c-14 18 -17 29 -10 38 18 21 24 81
12 112 l-12 30 -19 -24 c-10 -13 -19 -38 -19 -57 0 -19 -3 -34 -7 -34 -5 0
-21 22 -36 50 -15 27 -39 58 -54 70 -28 22 -68 27 -79 9z"/>
<path d="M416 1774 c-11 -28 -7 -84 8 -113 9 -17 11 -32 5 -42 -14 -23 -10
-35 5 -13 10 14 27 19 59 19 42 1 97 25 97 44 0 10 -36 20 -88 23 -28 2 -34 7
-42 39 -12 45 -35 67 -44 43z"/>
<path d="M895 1746 c15 -11 17 -32 14 -188 l-4 -177 -30 -32 c-21 -22 -24 -28
-10 -21 35 18 66 59 76 99 5 21 9 99 9 174 0 74 4 139 10 145 6 6 -8 10 -36
11 -39 1 -43 0 -29 -11z"/>
<path d="M1045 1735 c6 -11 31 -86 55 -167 24 -81 46 -145 50 -143 4 2 26 57
50 122 24 65 46 121 50 126 3 4 26 -49 50 -118 24 -70 47 -128 50 -130 4 -2
30 67 59 155 28 88 58 163 67 168 9 5 0 8 -28 9 -24 0 -37 -2 -30 -4 6 -3 12
-12 12 -21 0 -26 -62 -232 -70 -232 -4 0 -26 56 -50 125 -23 69 -45 125 -49
125 -3 0 -26 -56 -50 -125 -25 -69 -48 -125 -52 -125 -13 0 -71 231 -60 243 7
9 0 12 -28 12 -36 0 -38 -1 -26 -20z"/>
<path d="M330 1639 c0 -41 6 -63 25 -91 21 -31 23 -41 14 -65 -10 -27 -11 -27
-21 -8 -17 31 -50 65 -65 65 -9 0 -13 -13 -13 -40 0 -32 7 -48 35 -79 32 -35
35 -43 29 -80 l-7 -41 -34 35 c-19 19 -38 35 -43 35 -4 0 -15 3 -24 6 -12 5
-16 0 -16 -22 0 -42 32 -88 74 -108 30 -14 36 -22 36 -47 l0 -30 -43 26 c-24
14 -54 25 -66 25 -21 0 -21 -1 -6 -37 19 -46 57 -82 96 -90 24 -4 30 -12 37
-47 5 -22 8 -42 7 -44 -1 -1 -18 5 -38 13 -47 19 -97 20 -97 1 0 -29 64 -84
105 -91 60 -10 62 -11 74 -45 10 -29 9 -31 -7 -25 -31 13 -132 18 -132 7 0
-26 40 -53 109 -72 41 -11 79 -24 85 -30 16 -16 30 -12 17 4 -10 12 -7 18 12
31 40 26 69 111 48 143 -22 36 -103 -51 -87 -93 12 -33 -15 -13 -29 21 -21 51
-19 59 17 69 40 13 68 51 75 103 6 47 5 47 -40 28 -38 -16 -61 -41 -74 -81
l-10 -30 -12 40 c-19 67 -15 79 32 100 38 18 86 78 87 109 0 5 -19 6 -42 2
-29 -4 -52 -16 -70 -35 -29 -32 -38 -25 -38 29 0 24 4 28 41 34 22 4 51 13 63
21 22 14 46 54 46 75 0 18 -64 10 -99 -11 -18 -11 -35 -18 -37 -16 -3 2 -2 23
2 46 5 34 10 40 25 36 9 -3 33 1 52 8 39 17 84 72 67 82 -14 9 -81 -3 -98 -17
-20 -17 -25 -2 -9 27 11 22 21 28 56 29 32 2 49 10 73 33 17 17 27 36 24 42
-9 14 -61 14 -86 1 -25 -13 -47 -4 -54 24 -3 12 -19 35 -36 51 l-30 29 0 -55z"/>
<path d="M1952 1656 c-18 -20 -32 -43 -32 -50 0 -18 -31 -29 -44 -16 -13 13
-83 13 -91 -1 -17 -26 70 -83 116 -77 24 4 30 0 39 -25 11 -34 7 -45 -13 -29
-7 6 -32 14 -55 18 -34 5 -42 4 -42 -8 0 -41 86 -99 125 -85 9 4 15 -6 20 -34
4 -22 5 -43 2 -45 -3 -3 -20 4 -38 15 -36 22 -99 28 -99 10 0 -44 69 -99 124
-99 23 0 26 -4 26 -32 0 -18 -5 -40 -10 -48 -6 -9 -10 -10 -10 -3 0 22 -42 52
-82 58 -22 4 -42 5 -44 2 -9 -9 36 -86 59 -101 12 -8 35 -18 50 -21 19 -5 26
-12 23 -24 -3 -9 -8 -33 -12 -54 -6 -38 -24 -61 -24 -32 0 28 -32 74 -59 84
-66 24 -64 25 -58 -18 7 -53 42 -100 78 -108 33 -6 36 -19 13 -71 l-17 -37 -7
39 c-7 39 -49 86 -76 86 -38 0 -15 -115 29 -151 l26 -20 -21 -34 c-26 -45 -34
-44 -30 3 3 29 -1 42 -20 59 -13 12 -32 23 -43 25 -42 7 -27 -128 15 -139 29
-8 25 -24 -14 -62 l-33 -32 5 49 c5 52 -17 102 -44 102 -38 0 -47 -111 -12
-155 18 -23 19 -29 7 -36 -8 -4 -29 -19 -48 -33 -19 -14 -36 -24 -38 -22 -2 1
3 16 12 32 28 54 9 134 -31 134 -34 0 -63 -145 -34 -174 17 -17 12 -23 -39
-45 -66 -28 -68 -27 -32 14 38 43 46 113 17 143 -10 11 -20 6 -50 -25 -39 -41
-58 -91 -54 -144 3 -32 2 -32 -60 -46 -35 -8 -66 -13 -68 -10 -3 3 15 25 40
50 47 47 64 94 52 142 -8 33 -18 32 -61 -6 -56 -49 -79 -89 -85 -144 -5 -49
-6 -50 -39 -50 -32 1 -34 3 -37 44 -5 53 -16 73 -72 133 -47 50 -66 58 -76 32
-18 -47 24 -147 73 -174 12 -6 21 -16 21 -22 0 -11 -28 -8 -102 13 -37 10 -38
11 -32 44 8 46 -9 93 -52 138 -45 47 -64 37 -64 -34 0 -40 5 -55 31 -84 36
-40 26 -44 -34 -14 -53 27 -52 26 -38 43 29 34 2 176 -33 176 -40 0 -59 -80
-32 -132 19 -35 5 -36 -42 -1 -20 15 -39 29 -41 30 -3 2 5 13 17 26 34 36 27
157 -8 157 -6 0 -19 -9 -30 -20 -23 -23 -28 -98 -8 -118 8 -8 8 -12 1 -12 -6
0 -25 16 -43 36 l-32 37 28 22 c25 20 28 29 29 80 0 34 -5 60 -11 62 -6 2 -26
-8 -44 -23 -30 -25 -32 -31 -27 -73 4 -40 3 -43 -8 -27 -21 28 -185 32 -185 5
0 -28 165 -67 187 -45 7 7 63 -43 63 -57 0 -5 -12 -6 -28 -3 -32 7 -124 -14
-129 -30 -9 -27 144 -47 186 -24 13 7 28 2 57 -17 l39 -27 -65 -11 c-36 -6
-76 -17 -89 -24 -23 -13 -23 -15 -8 -26 41 -29 175 -25 214 7 8 6 24 3 48 -10
l37 -18 -60 -18 c-64 -20 -122 -59 -109 -73 5 -4 39 -8 77 -7 55 0 80 6 132
32 59 29 68 30 104 20 l39 -11 -41 -14 c-41 -14 -124 -76 -124 -94 0 -5 24 -9
53 -9 45 1 104 16 169 44 15 7 15 3 -3 -30 -26 -52 -24 -72 6 -80 36 -9 52 9
65 74 23 118 32 121 55 17 17 -77 32 -99 61 -93 33 6 39 33 17 77 -18 37 -19
41 -5 35 65 -28 124 -43 170 -44 28 0 52 4 52 9 0 19 -83 80 -126 92 l-44 13
43 13 c39 12 45 11 87 -12 25 -13 68 -29 95 -35 52 -12 135 -5 135 10 0 15
-45 41 -111 64 l-59 22 36 17 c25 12 40 15 48 8 27 -22 115 -33 166 -21 28 7
52 16 55 21 10 15 -54 40 -110 42 -30 1 -55 5 -55 9 0 4 13 16 29 27 25 18 38
20 103 15 79 -7 152 8 145 29 -5 17 -96 38 -129 31 -35 -7 -36 5 -3 36 21 20
34 23 80 21 55 -2 145 27 145 48 0 15 -55 23 -112 16 l-53 -7 21 22 c12 12 52
29 95 40 70 18 109 44 109 72 0 11 -101 6 -133 -7 -17 -7 -17 -5 -4 26 11 29
20 35 53 40 21 3 49 10 61 17 24 13 63 64 63 81 0 16 -55 14 -97 -4 -19 -8
-37 -15 -38 -15 -1 0 2 20 8 45 7 30 16 45 26 45 30 0 80 39 101 79 11 22 20
43 20 46 0 15 -60 2 -93 -20 l-37 -26 0 30 c0 25 7 33 36 47 42 20 74 66 74
107 0 15 -2 27 -5 27 -17 0 -73 -36 -91 -58 l-21 -25 -6 43 c-5 40 -2 48 29
82 27 30 34 47 34 78 0 28 -4 40 -14 40 -15 0 -66 -55 -66 -71 0 -19 -18 1
-24 26 -5 18 -1 32 14 47 27 29 42 86 32 122 l-8 28 -32 -36z"/>
<path d="M844 1279 c-93 -27 -119 -160 -43 -223 23 -20 41 -26 77 -26 84 1
132 49 132 132 0 57 -34 103 -88 118 -42 11 -37 11 -78 -1z m87 -19 c28 -16
49 -63 49 -115 0 -38 -5 -52 -29 -76 -33 -32 -67 -37 -110 -14 -63 32 -74 161
-18 200 25 17 79 20 108 5z"/>
<path d="M1145 1283 c-53 -14 -95 -71 -95 -128 0 -137 193 -175 246 -49 8 19
14 46 14 61 0 33 -31 87 -57 101 -25 14 -83 22 -108 15z m98 -39 c33 -32 43
-84 28 -135 -14 -45 -43 -69 -87 -69 -89 0 -137 137 -73 206 32 35 97 33 132
-2z"/>
<path d="M1672 1280 c-25 -10 -42 -45 -35 -71 3 -9 25 -36 49 -60 44 -43 54
-75 32 -97 -18 -18 -65 -15 -78 6 -10 15 -10 15 -8 -3 4 -27 72 -34 99 -9 33
30 25 77 -22 121 -58 54 -64 68 -39 93 21 21 46 18 68 -8 10 -14 12 -13 12 5
0 13 -8 23 -22 27 -28 7 -27 7 -56 -4z"/>
<path d="M588 1268 c16 -16 16 -210 0 -226 -9 -9 -4 -12 26 -12 34 0 36 1 21
16 -11 12 -15 30 -13 63 3 39 6 46 26 49 13 2 30 -2 38 -8 11 -10 14 -9 14 4
0 12 -10 16 -41 16 l-40 0 3 48 c3 43 5 47 31 50 16 2 35 -2 43 -9 11 -9 14
-8 14 5 0 13 -12 16 -67 16 -52 0 -64 -3 -55 -12z"/>
<path d="M1358 1163 c2 -88 0 -118 -10 -124 -24 -16 132 -10 166 6 42 20 66
63 66 117 0 81 -51 118 -162 118 l-63 0 3 -117z m139 87 c40 -24 54 -50 55
-102 1 -72 -64 -122 -136 -104 l-26 6 0 110 0 110 38 0 c20 0 51 -9 69 -20z"/>
<path d="M883 963 c9 -2 23 -2 30 0 6 3 -1 5 -18 5 -16 0 -22 -2 -12 -5z"/>
<path d="M810 950 c-18 -12 -2 -12 25 0 13 6 15 9 5 9 -8 0 -22 -4 -30 -9z"/>
<path d="M912 937 c-12 -13 -22 -27 -22 -32 0 -5 7 0 15 13 9 12 30 26 48 31
30 8 30 9 6 10 -15 1 -35 -9 -47 -22z"/>
<path d="M1135 933 c-46 -30 -145 -127 -145 -142 0 -5 24 15 53 46 28 31 74
71 102 89 27 19 45 34 40 33 -6 0 -28 -12 -50 -26z"/>
<path d="M769 923 c-13 -16 -12 -17 4 -4 9 7 17 15 17 17 0 8 -8 3 -21 -13z"/>
<path d="M990 875 c-11 -13 -10 -14 4 -9 9 3 16 10 16 15 0 13 -6 11 -20 -6z"/>
<path d="M1242 838 c-28 -29 -49 -54 -47 -57 3 -2 6 -2 8 0 1 2 24 28 52 57
27 28 47 52 43 52 -3 0 -28 -23 -56 -52z"/>
<path d="M1327 869 c-15 -12 -32 -31 -38 -42 -7 -14 4 -7 30 18 37 35 46 46
39 45 -2 0 -15 -10 -31 -21z"/>
<path d="M1425 859 c-19 -17 -35 -38 -34 -48 0 -13 1 -13 6 -1 3 8 21 30 41
47 21 18 34 33 30 33 -4 0 -23 -14 -43 -31z"/>
<path d="M1556 881 c-3 -4 6 -6 19 -3 14 2 25 6 25 8 0 8 -39 4 -44 -5z"/>
<path d="M820 858 c-49 -34 -63 -60 -46 -83 13 -19 14 -18 9 6 -5 25 11 46 62
84 32 23 11 17 -25 -7z"/>
<path d="M1353 834 c-15 -19 -52 -53 -82 -75 -30 -21 -50 -39 -45 -39 23 0
135 96 155 133 16 29 2 19 -28 -19z"/>
<path d="M1445 824 c-21 -26 -59 -60 -84 -76 -29 -19 -37 -27 -21 -23 32 9
103 67 131 106 34 49 15 44 -26 -7z"/>
<path d="M947 804 c-10 -13 -13 -24 -8 -24 10 0 36 39 29 45 -2 2 -11 -8 -21
-21z"/>
<path d="M915 810 c-3 -6 1 -7 9 -4 18 7 21 14 7 14 -6 0 -13 -4 -16 -10z"/>
<path d="M1475 756 c-37 -36 -37 -38 -9 -23 34 17 58 42 52 54 -1 4 -21 -9
-43 -31z"/>
</g>
</svg>
